<svg width="30" height="30" viewBox="0 0 30 30" fill="none" xmlns="http://www.w3.org/2000/svg">
<circle cx="15.5" cy="14.5" r="12.5" fill="black"/>
<path d="M11.0372 14.8093V19L18.0583 14.772L20.2823 13.4328V9L13.3893 13.3313L11.0372 14.8093Z" fill="#CDF160"/>
<path d="M25 9H20.2823V13.4328H25V9Z" fill="#CDF160"/>
<path d="M25 13.4328H20.2823L18.0583 14.772L23.2496 14.7035L25 13.4328Z" fill="#CDF160"/>
<path d="M6 14.8093H11.0372L13.3893 13.3313H8.522L6 14.8093Z" fill="#CDF160"/>
<path d="M6 14.8093V19H11.0372V14.8093H6Z" fill="#CDF160"/>
<path d="M6 14.8093V19H11.0372M6 14.8093H11.0372M6 14.8093L8.522 13.3313H13.3893M11.0372 19V14.8093M11.0372 19L20.2823 13.4328M11.0372 19L18.0583 14.772M11.0372 14.8093L20.2823 9M11.0372 14.8093L13.3893 13.3313M13.3893 13.3313L20.2823 9M20.2823 9H25V13.4328M20.2823 9V13.4328M25 13.4328H20.2823M25 13.4328L23.2496 14.7035L18.0583 14.772M20.2823 13.4328L18.0583 14.772" stroke="black" stroke-width="0.3"/>
</svg>
